<svg width="23" height="23" viewBox="0 0 23 23" fill="none" xmlns="http://www.w3.org/2000/svg">
<path d="M1.29932 14.6689C1.29932 13.2232 2.23627 12.1972 3.38304 12.5289C5.42509 13.1204 7.22859 12.5759 8.83234 10.9892C9.93887 9.89278 11.0066 8.7303 12.1965 7.77184C15.1827 5.36323 19.1288 5.68761 21.8448 8.52041C22.1337 8.82277 22.388 9.16476 22.6093 9.54638C23.1727 10.521 23.1296 11.5235 22.4728 12.3278C21.7672 13.1923 20.9467 13.3039 20.1563 12.5612C19.2754 11.7334 18.3959 10.9584 17.2247 10.8894C15.4945 10.7852 14.079 11.6086 12.8503 13.0221C11.7855 14.2477 10.6775 15.4057 9.35973 16.213C7.13805 17.5736 4.8244 17.6279 2.47626 16.8383C1.74049 16.5902 1.30219 15.6802 1.30075 14.6689H1.29932Z" fill="#FFEDEA"/>
<path d="M2.76513 6.22062C4.21943 6.4995 5.41074 5.70837 6.46698 4.46516C7.27172 3.51845 8.04486 2.52477 8.96744 1.73804C10.7063 0.255592 12.6305 -0.25666 14.7156 0.119089C15.9917 0.348062 16.8957 1.2889 17.0738 2.53211C17.2679 3.88099 16.2964 5.1697 15.2201 4.83358C13.0257 4.14666 11.317 5.05668 9.82105 6.95598C8.83667 8.20652 7.79194 9.38514 6.48422 10.1322C4.89628 11.0408 3.22355 11.0379 1.54939 10.6915C0.603807 10.4962 -0.0141251 9.41303 0.000245401 8.23147C0.0146159 7.10275 0.638296 6.28667 1.55513 6.22502C1.93308 6.20007 2.3139 6.22062 2.76513 6.22062Z" fill="#FFEDEA"/>
<path d="M9.77503 22.9912C9.30799 23.0293 8.7576 22.9413 8.22302 22.7035C7.33923 22.3087 6.86644 21.4676 6.90093 20.3507C6.93255 19.3731 7.43408 18.6862 8.3308 18.3604C8.78203 18.196 9.24045 18.2268 9.69887 18.218C11.2322 18.1916 12.4365 17.4474 13.2513 15.8211C13.5315 15.2604 13.8333 14.7217 14.1767 14.2066C14.7688 13.32 15.8983 13.2393 16.568 13.7471C17.2908 14.2946 17.5868 15.278 17.321 16.4405C16.8971 18.2884 15.8897 19.6447 14.7343 20.8365C13.3447 22.272 11.6691 22.9706 9.77216 22.9912H9.77503Z" fill="#FFEDEA"/>
</svg>
